<svg xmlns="http://www.w3.org/2000/svg" viewBox="0 0 28.11 28.11"><defs><style>.cls-1{fill:#3180f7;}.cls-2{fill:#fff;stroke:#fff;stroke-miterlimit:10;stroke-width:0.38px;}</style></defs><g id="레이어_2" data-name="레이어 2"><g id="레이어_1-2" data-name="레이어 1"><circle class="cls-1" cx="14.05" cy="14.05" r="14.05"/><g id="RbghAh.tif"><path class="cls-2" d="M8.65,22.14H7a.74.74,0,0,1-.81-.8c0-1.08,0-2.16,0-3.24a1.13,1.13,0,0,1,.34-.81C9.28,14.54,12,11.78,14.79,9l2.45-2.46a1.55,1.55,0,0,1,.83-.48,1.32,1.32,0,0,1,1.22.32C20.17,7.26,21,8.13,21.9,9a1.38,1.38,0,0,1,0,1.9L21.8,11,11,21.89a.77.77,0,0,1-.57.25ZM18,12.75l-2.41-2.41-.13.12L7.74,18.17a.32.32,0,0,0-.08.21v2.16a.49.49,0,0,1,0,.12H9.92a.32.32,0,0,0,.26-.12l7.65-7.65Zm.37-5.17L16.69,9.25l2.36,2.37,1.7-1.68Z"/></g></g></g></svg>