<svg xmlns="http://www.w3.org/2000/svg" viewBox="0 0 135 135"><defs><style>.cls-1{fill:#054fd3;}.cls-2{fill:#fff;}</style></defs><g id="레이어_2" data-name="레이어 2"><g id="레이어_1-2" data-name="레이어 1"><circle class="cls-1" cx="67.5" cy="67.5" r="67.5"/><path class="cls-2" d="M85.41,93.82V92.9q0-10.82,0-21.62a4.73,4.73,0,0,1,9.4-1,9.87,9.87,0,0,1,.08,1.22q0,13.32,0,26.63c0,2.1-.71,3.81-2.68,4.75a5.5,5.5,0,0,1-2.3.5q-26.44,0-52.89,0a4.7,4.7,0,0,1-4.92-4.95q0-26.45,0-52.89a4.7,4.7,0,0,1,4.94-4.93q13.63,0,27.27,0a4.74,4.74,0,0,1,3.09,8.49,5.44,5.44,0,0,1-3.41,1q-10.71,0-21.4,0h-1V93.82Z"/><path class="cls-2" d="M87.24,41.16c-3.1,0-6,0-8.95,0a4.83,4.83,0,0,1-4.85-3.49,4.68,4.68,0,0,1,4.24-6c4.62-.09,9.23,0,13.85-.05,2.32,0,4.64,0,7,0a4.65,4.65,0,0,1,4.33,4.15c0,.53.07,1.06.07,1.59q0,9.21,0,18.42a5,5,0,0,1-1.82,4.23,4.5,4.5,0,0,1-4.78.65,4.2,4.2,0,0,1-2.79-3.67c-.16-2.31-.08-4.63-.1-7,0-.5,0-1,0-1.66-.3.29-.49.45-.67.63L67.92,74.22A5.29,5.29,0,0,1,64.63,76a4.81,4.81,0,0,1-4.5-2.2,4.68,4.68,0,0,1,.16-5.25,11.16,11.16,0,0,1,.91-1L86.65,41.8C86.82,41.63,87,41.45,87.24,41.16Z"/></g></g></svg>