<svg xmlns="http://www.w3.org/2000/svg" viewBox="0 0 28.11 28.11"><defs><style>.cls-1{fill:#3180f7;}.cls-2{fill:#fff;}</style></defs><g id="레이어_2" data-name="레이어 2"><g id="레이어_1-2" data-name="레이어 1"><circle class="cls-1" cx="14.05" cy="14.05" r="14.05"/><path class="cls-2" d="M17.78,19.53V14.84a1,1,0,0,1,2-.22,2.28,2.28,0,0,1,0,.26v5.54a1,1,0,0,1-.56,1,1.12,1.12,0,0,1-.48.1h-11a1,1,0,0,1-1-1q0-5.5,0-11a1,1,0,0,1,1-1h5.68A1,1,0,0,1,14,10.22a1.18,1.18,0,0,1-.71.2H8.67v9.11Z"/><path class="cls-2" d="M18.16,8.57H16.3a1,1,0,0,1-1-.73,1,1,0,0,1,.88-1.24c1,0,1.93,0,2.89,0,.48,0,1,0,1.45,0a1,1,0,0,1,.9.86c0,.11,0,.22,0,.33v3.84a1,1,0,0,1-.38.88.94.94,0,0,1-1,.13.86.86,0,0,1-.58-.76c0-.48,0-1,0-1.45v-.34l-.14.13-5.17,5.23a1.09,1.09,0,0,1-.68.38,1,1,0,0,1-.94-.46,1,1,0,0,1,0-1.1l.19-.21L18,8.7Z"/></g></g></svg>