<svg xmlns="http://www.w3.org/2000/svg" viewBox="0 0 176.79 207"><defs><style>.cls-1{fill:#18244c;}</style></defs><g id="레이어_2" data-name="레이어 2"><g id="레이어_1-2" data-name="레이어 1"><path class="cls-1" d="M34.24,178a86.71,86.71,0,0,1-11-11.65C4.86,145.77-16,91.89,18.76,43c14.37-20.15,35-33.72,55.46-39.23C122-9.06,158.65,13.51,175.46,31.69c1.87,2,1.62,4.61.18,5.8-2.06,1.75-4,.84-8.17-.38a43.13,43.13,0,0,0-18.21-1.58c-14,1.8-26.19,14.81-24.5,33,1.53,16.6,14.32,28.57,23.29,36.49,31.57,27.79,21,57.58,18.45,64.12-8.74,22.2-31.09,37.88-60.07,37.88a88.9,88.9,0,0,1-46.91-14.22c-.69-.29-1.37-1.19-.52-2.69,1.34-3.37,6.92-13.23,9.32-16.07,8.67,10,23.35,19.49,39.64,20.09,22.26.82,36.63-11.24,41.88-26.53,5.93-17.18-.37-34.7-17-50.51-14.34-13.62-27.13-26.22-27.89-47.83-.94-27.68,23.15-44.11,45.54-43,.68,0-31-22.79-71.56-9.19a84.17,84.17,0,0,0-37.47,25,1.64,1.64,0,0,0,0,2.24c.64.91,14.45,20.16,14.45,20.16L31,58.76a1.47,1.47,0,0,0-1.56.59c-7.92,13.64-19.57,53.1,6.46,89,0,0,22.19-35.13,66.23-38.12,2.94-.19,2.56.85.62,1.55-39.33,14.46-54.85,43.31-64.88,65.56A2.17,2.17,0,0,1,34.24,178Z"/><path class="cls-1" d="M74.8,150.86s2.45-1.09,3.17-1.47v17.05H81V146.39l-.49-.34-.17.09c-2.24,1.11-4.54,2.16-6.49,2.94Z"/><path class="cls-1" d="M91.2,156.42c2.5,0,3.71,1.28,3.71,3.94a4.09,4.09,0,0,1-4.28,4.45A4.93,4.93,0,0,1,87,163l-.4-.44-.72,2.66.23.1a9.9,9.9,0,0,0,4.46,1c4.39,0,7.59-2.67,7.59-6.37,0-3.38-2.61-4.35-4.19-4.64a5.09,5.09,0,0,0,3.28-4.71c0-2.82-2.2-4.56-5.77-4.57a5.92,5.92,0,0,0-4.55,2l1.31,2.3.22-.65a3.17,3.17,0,0,1,2.92-2.07c1.26,0,2.74.84,2.74,3.21,0,1.85-.52,4-2.92,4l-1.61-.12v1.9A6.82,6.82,0,0,1,91.2,156.42Z"/><path class="cls-1" d="M102.37,162.39l.83,3.24a6.57,6.57,0,0,0,3.08.73c5.14,0,8.73-4.82,8.73-11.74,0-7.71-4.69-8.55-6.71-8.55a6.26,6.26,0,0,0-6.64,6.44c0,3.7,2.23,6,5.83,6a5.27,5.27,0,0,0,4.35-2.07c-.23,4.31-1.92,8.25-5.44,8.27A4.66,4.66,0,0,1,102.37,162.39Zm5.62-5.58c-2.15,0-3.22-1.41-3.22-4.3s1.4-4.9,3.51-4.9,3.47,1.66,3.47,4.14S110.47,156.81,108,156.81Z"/><path class="cls-1" d="M127.28,154.83a4.65,4.65,0,0,0,2.88-4.24c0-2.08-1.5-4.52-5.76-4.52-3.24,0-5.67,2.08-5.67,4.85a4.35,4.35,0,0,0,2.9,4.07,5.63,5.63,0,0,0-3.91,5.49c0,3.52,2.69,5.88,6.68,5.88a6.41,6.41,0,0,0,6.7-6.54A4.94,4.94,0,0,0,127.28,154.83ZM121.67,151c0-.8.22-3.35,2.74-3.35s2.8,2.33,2.8,3.35c0,.78-.21,3.35-2.8,3.35S121.67,151.74,121.67,151Zm2.73,13.85c-2.13,0-3.54-1.8-3.54-4.48s1.41-4.48,3.54-4.48,3.55,1.8,3.55,4.48S126.55,164.81,124.4,164.81Z"/></g></g></svg>